<svg id="Group_16" data-name="Group 16" xmlns="http://www.w3.org/2000/svg" width="17.208" height="17.208" viewBox="0 0 17.208 17.208">
  <path id="Path_14" data-name="Path 14" d="M17.135,7.482H9.726V.073a8.683,8.683,0,0,0-2.245,0V7.482H.073a8.683,8.683,0,0,0,0,2.245H7.482v7.409a8.683,8.683,0,0,0,2.245,0V9.726h7.409a8.683,8.683,0,0,0,0-2.245Z" transform="translate(0 0)" fill="#d80027"/>
  <path id="Path_15" data-name="Path 15" d="M91.288,90.165V89.043H90.165v1.122H89.043v1.122h1.122V92.41h1.122V91.288H92.41V90.165Z" transform="translate(-86.05 -86.05)" fill="#d80027"/>
  <path id="Path_16" data-name="Path 16" d="M325.027,90.165V89.043h-1.122v1.122h-1.122v1.122h1.122V92.41h1.122V91.288h1.122V90.165Z" transform="translate(-311.934 -86.05)" fill="#d80027"/>
  <path id="Path_17" data-name="Path 17" d="M91.288,323.905v-1.122H90.165v1.122H89.043v1.122h1.122v1.122h1.122v-1.122H92.41v-1.122Z" transform="translate(-86.05 -311.934)" fill="#d80027"/>
  <path id="Path_18" data-name="Path 18" d="M325.027,323.905v-1.122h-1.122v1.122h-1.122v1.122h1.122v1.122h1.122v-1.122h1.122v-1.122Z" transform="translate(-311.934 -311.934)" fill="#d80027"/>
</svg>
