<svg id="shopping_cart_black_24dp" xmlns="http://www.w3.org/2000/svg" width="43.271" height="39.5" viewBox="0 0 43.271 39.5">
  <path id="Path_157" data-name="Path 157" d="M0,0H43.271V39.5H0Z" fill="none"/>
  <path id="Path_158" data-name="Path 158" d="M29.564,21.525A3.989,3.989,0,0,0,33,19.7l7.028-11.52A1.777,1.777,0,0,0,38.32,5.55H9.265L7.42,2H1V5.55H4.926l7.067,13.472-2.65,4.331c-1.433,2.378.452,5.272,3.436,5.272H36.337v-3.55H12.779l2.159-3.55ZM11.13,9.1H34.983l-5.418,8.875H15.783Zm1.649,21.3a3.745,3.745,0,0,0-3.907,3.55,3.745,3.745,0,0,0,3.907,3.55,3.764,3.764,0,0,0,3.926-3.55A3.764,3.764,0,0,0,12.779,30.4Zm19.632,0A3.745,3.745,0,0,0,28.5,33.95a3.745,3.745,0,0,0,3.907,3.55,3.764,3.764,0,0,0,3.926-3.55A3.764,3.764,0,0,0,32.411,30.4Z"/>
</svg>
