<svg xmlns="http://www.w3.org/2000/svg" width="25.141" height="25.015" viewBox="0 0 25.141 25.015">
  <g id="edit" transform="translate(0 -0.261)">
    <path id="Path_440" data-name="Path 440" d="M23.2,52.434a.626.626,0,0,0-.626.626v5.559A1.88,1.88,0,0,1,20.7,60.5H3.131a1.88,1.88,0,0,1-1.878-1.878V42.3a1.881,1.881,0,0,1,1.878-1.878H8.69a.626.626,0,0,0,0-1.252H3.131A3.134,3.134,0,0,0,0,42.3V58.62A3.134,3.134,0,0,0,3.131,61.75H20.7A3.134,3.134,0,0,0,23.83,58.62V53.06a.626.626,0,0,0-.626-.626Zm0,0" transform="translate(0 -36.475)"/>
    <path id="Path_441" data-name="Path 441" d="M125,1.086a2.818,2.818,0,0,0-3.985,0L109.843,12.257a.626.626,0,0,0-.161.276l-1.469,5.3a.626.626,0,0,0,.77.771l5.3-1.469a.626.626,0,0,0,.276-.161l11.17-11.171a2.821,2.821,0,0,0,0-3.985ZM111.207,12.664l9.142-9.143L123.3,6.47l-9.143,9.143Zm-.589,1.182,2.356,2.356-3.258.9Zm14.23-8.925-.664.664-2.949-2.949.664-.664a1.565,1.565,0,0,1,2.214,0l.735.735A1.568,1.568,0,0,1,124.848,4.92Zm0,0" transform="translate(-101.416)"/>
  </g>
</svg>
