<svg xmlns="http://www.w3.org/2000/svg" xmlns:xlink="http://www.w3.org/1999/xlink" width="50" height="50" viewBox="0 0 50 50">
  <defs>
    <filter id="Ellipse_15" x="0" y="0" width="50" height="50" filterUnits="userSpaceOnUse">
      <feOffset dy="3" input="SourceAlpha"/>
      <feGaussianBlur stdDeviation="3" result="blur"/>
      <feFlood flood-opacity="0.161"/>
      <feComposite operator="in" in2="blur"/>
      <feComposite in="SourceGraphic"/>
    </filter>
  </defs>
  <g id="Group_207" data-name="Group 207" transform="translate(9 6)">
    <g transform="matrix(1, 0, 0, 1, -9, -6)" filter="url(#Ellipse_15)">
      <circle id="Ellipse_15-2" data-name="Ellipse 15" cx="16" cy="16" r="16" transform="translate(9 6)" fill="#fff"/>
    </g>
    <g id="info_1_" data-name="info (1)" transform="translate(10.851 4.857)">
      <path id="Path_146" data-name="Path 146" d="M41.128,19.88,40.8,21.153q-1.465.553-2.338.842a6.428,6.428,0,0,1-2.028.29,4.172,4.172,0,0,1-2.759-.827,2.628,2.628,0,0,1-.984-2.1,7.115,7.115,0,0,1,.073-1.011A11.887,11.887,0,0,1,33,17.177l1.221-4.132q.163-.593.275-1.125a4.684,4.684,0,0,0,.111-.968,1.455,1.455,0,0,0-.342-1.1,2,2,0,0,0-1.306-.312,3.567,3.567,0,0,0-.971.142c-.332.094-.616.185-.854.269l.326-1.274q1.2-.467,2.3-.8a7.152,7.152,0,0,1,2.076-.333,4.07,4.07,0,0,1,2.717.814,2.649,2.649,0,0,1,.955,2.115c0,.18-.021.5-.066.948a6.094,6.094,0,0,1-.245,1.246l-1.216,4.115a10.524,10.524,0,0,0-.267,1.134,5.59,5.59,0,0,0-.119.962,1.35,1.35,0,0,0,.383,1.118,2.239,2.239,0,0,0,1.33.3,4,4,0,0,0,1.006-.149A5.8,5.8,0,0,0,41.128,19.88ZM41.437,2.6a2.362,2.362,0,0,1-.851,1.833,2.97,2.97,0,0,1-2.048.758,3,3,0,0,1-2.058-.758,2.392,2.392,0,0,1,0-3.672,3.142,3.142,0,0,1,4.106,0A2.385,2.385,0,0,1,41.437,2.6Z" transform="translate(-31.139 0)"/>
    </g>
  </g>
</svg>
