<svg xmlns="http://www.w3.org/2000/svg" width="19" height="18.21" viewBox="0 0 19 18.21">
  <path id="Path_154" data-name="Path 154" d="M6.737,5.023a11.988,11.988,0,0,0,.475,2.62L5.945,8.858a14.454,14.454,0,0,1-.8-3.834H6.737m10.408,12.16a13.992,13.992,0,0,0,2.744.455v1.507a16.907,16.907,0,0,1-4.011-.759l1.267-1.2M7.75,3H4.056A1.037,1.037,0,0,0,3,4.012c0,9.5,8.033,17.2,17.944,17.2A1.037,1.037,0,0,0,22,20.2V16.668a1.037,1.037,0,0,0-1.056-1.012,12.518,12.518,0,0,1-3.768-.577.921.921,0,0,0-.327-.051,1.106,1.106,0,0,0-.749.293l-2.322,2.226a15.674,15.674,0,0,1-6.956-6.667L9.143,8.655a.986.986,0,0,0,.264-1.032,11.058,11.058,0,0,1-.6-3.612A1.037,1.037,0,0,0,7.75,3Z" transform="translate(-3 -3)"/>
</svg>
