<svg id="account_circle_black_24dp" xmlns="http://www.w3.org/2000/svg" width="41.342" height="41" viewBox="0 0 41.342 41">
  <path id="Path_169" data-name="Path 169" d="M0,0H41.342V41H0Z" fill="none"/>
  <path id="Path_170" data-name="Path 170" d="M20.369,2A18.2,18.2,0,1,0,38.739,20.2,18.291,18.291,0,0,0,20.369,2ZM11.313,31.627c.79-1.638,5.6-3.239,9.056-3.239s8.285,1.6,9.056,3.239a14.666,14.666,0,0,1-18.112,0Zm20.739-2.639c-2.627-3.167-9-4.24-11.683-4.24s-9.056,1.074-11.683,4.24A14.381,14.381,0,0,1,5.674,20.2a14.7,14.7,0,0,1,29.391,0A14.381,14.381,0,0,1,32.052,28.988ZM20.369,9.279A6.37,6.37,0,1,0,26.8,15.649,6.383,6.383,0,0,0,20.369,9.279Zm0,9.1a2.73,2.73,0,1,1,2.755-2.73A2.739,2.739,0,0,1,20.369,18.379Z" transform="translate(0.302 0.302)" fill="#fdcb6e"/>
</svg>
