<svg xmlns="http://www.w3.org/2000/svg" width="24.732" height="24.49" viewBox="0 0 24.732 24.49">
  <path id="Path_170" data-name="Path 170" d="M14.366,2A12.246,12.246,0,1,0,26.732,14.245,12.311,12.311,0,0,0,14.366,2ZM8.27,21.935c.532-1.1,3.772-2.18,6.1-2.18s5.577,1.078,6.1,2.18a9.877,9.877,0,0,1-12.193,0Zm13.961-1.776c-1.768-2.131-6.059-2.853-7.865-2.853s-6.1.722-7.865,2.853a9.673,9.673,0,0,1-2.028-5.914,9.893,9.893,0,0,1,19.786,0A9.673,9.673,0,0,1,22.231,20.159ZM14.366,6.9a4.286,4.286,0,1,0,4.328,4.286A4.3,4.3,0,0,0,14.366,6.9Zm0,6.122a1.837,1.837,0,1,1,1.855-1.837A1.843,1.843,0,0,1,14.366,13.02Z" transform="translate(-2 -2)" fill="#0a0a0a"/>
</svg>
