<svg id="favorite_border_black_24dp" xmlns="http://www.w3.org/2000/svg" width="41" height="41" viewBox="0 0 41 41">
  <path id="Path_159" data-name="Path 159" d="M0,0H41V41H0Z" fill="none"/>
  <path id="Path_160" data-name="Path 160" d="M28.825,3A10.9,10.9,0,0,0,20.5,7.026,10.9,10.9,0,0,0,12.175,3,10.291,10.291,0,0,0,2,13.6c0,7.282,6.29,13.215,15.818,22.231L20.5,38.35l2.683-2.543C32.71,26.811,39,20.877,39,13.6A10.291,10.291,0,0,0,28.825,3Zm-8.14,29.956-.185.193-.185-.193C11.509,24.653,5.7,19.163,5.7,13.6a6.457,6.457,0,0,1,6.475-6.743,7.234,7.234,0,0,1,6.6,4.546h3.459a7.189,7.189,0,0,1,6.586-4.546A6.457,6.457,0,0,1,35.3,13.6C35.3,19.163,29.491,24.653,20.685,32.956Z"/>
</svg>
